<svg xmlns="http://www.w3.org/2000/svg" xmlns:xlink="http://www.w3.org/1999/xlink" viewBox="0 0 475.89 476.55"><defs><style>.cls-1,.cls-14,.cls-15{fill:#fff;}.cls-2{isolation:isolate;}.cls-3{mask:url(#mask);}.cls-4{opacity:0.2;}.cls-10,.cls-4{mix-blend-mode:multiply;}.cls-5{fill:#818285;}.cls-6{fill:#231f20;}.cls-7{fill:#595a5c;}.cls-8{fill:#a8aaad;}.cls-9{fill:#d2d3d4;}.cls-10{fill:#6ebaff;}.cls-11{filter:url(#drop-shadow);}.cls-12{fill:none;stroke:#fff;stroke-miterlimit:10;stroke-width:30px;}.cls-13{filter:url(#drop-shadow-2);}.cls-14{font-size:190px;font-family:Aller-Bold, Aller;font-weight:700;letter-spacing:-0.02em;}.cls-15{font-size:78px;font-family:Aller-Regular, Aller;letter-spacing:-0.03em;}.cls-16{letter-spacing:-0.02em;}</style><mask id="mask" x="-355.18" y="-292.69" width="1225.65" height="1036.62" maskUnits="userSpaceOnUse"><circle class="cls-1" cx="237.83" cy="237.83" r="237.83"/></mask><filter id="drop-shadow" x="-100%" y="-100%" width="300%" height="300%" name="drop-shadow"><feGaussianBlur stdDeviation="2" in="SourceAlpha"/><feOffset result="offsetblur"/><feFlood/><feComposite operator="in" in="offsetblur"/><feMerge><feMergeNode/><feMergeNode in="SourceGraphic"/></feMerge></filter><filter id="drop-shadow-2" x="-100%" y="-100%" width="300%" height="300%" name="drop-shadow-2"><feGaussianBlur stdDeviation="1" in="SourceAlpha"/><feOffset result="offsetblur" dy="2"/><feFlood flood-opacity="0.5"/><feComposite operator="in" in="offsetblur"/><feMerge><feMergeNode/><feMergeNode in="SourceGraphic"/></feMerge></filter></defs><g class="cls-2"><g id="Layer_2" data-name="Layer 2"><g class="cls-3"><circle class="cls-1" cx="237.83" cy="237.83" r="237.83"/><g class="cls-4"><polygon class="cls-5" points="-355.18 436.38 -77.2 -45.08 200.76 436.38 -355.18 436.38"/><polygon class="cls-5" points="84.51 188.77 362.49 -292.69 640.45 188.77 84.51 188.77"/><polygon class="cls-6" points="-77.21 313.96 200.77 -167.5 478.73 313.96 -77.21 313.96"/><polygon class="cls-7" points="314.53 489.28 592.51 7.82 870.47 489.28 314.53 489.28"/><polygon class="cls-7" points="-19.11 743.92 258.88 262.46 536.83 743.92 -19.11 743.92"/><polygon class="cls-8" points="-89.41 201.81 16.16 18.97 121.72 201.81 -89.41 201.81"/><polygon class="cls-8" points="-1.05 610.42 104.51 427.58 210.07 610.42 -1.05 610.42"/><polygon class="cls-7" points="219.36 290.59 324.92 107.76 430.48 290.59 219.36 290.59"/><polygon class="cls-8" points="413.52 569.04 519.08 386.2 624.64 569.04 413.52 569.04"/><polygon class="cls-5" points="-58.79 556.82 46.78 373.98 152.34 556.82 -58.79 556.82"/><polygon class="cls-6" points="391.82 373.98 444.6 282.57 497.37 373.98 391.82 373.98"/><polygon class="cls-6" points="139.6 476.06 245.17 293.23 350.73 476.06 139.6 476.06"/><polygon class="cls-5" points="207.52 -51.97 129.09 83.89 340.2 83.89 261.77 -51.97 207.52 -51.97"/><polygon class="cls-7" points="142.14 397.4 247.7 214.56 353.26 397.4 142.14 397.4"/><polygon class="cls-5" points="345.59 442.68 451.15 259.85 556.71 442.68 345.59 442.68"/><polygon class="cls-7" points="33.14 507.29 85.33 416.9 137.51 507.29 33.14 507.29"/><polygon class="cls-8" points="226.76 152.37 278.94 61.98 331.13 152.37 226.76 152.37"/><polygon class="cls-6" points="396.52 139.91 448.71 49.52 500.89 139.91 396.52 139.91"/><polygon class="cls-5" points="22.34 401.8 48.44 356.6 74.53 401.8 22.34 401.8"/><polygon class="cls-6" points="324.84 346.87 377.02 256.49 429.2 346.87 324.84 346.87"/><polygon class="cls-7" points="396.52 301.68 448.71 211.3 500.89 301.68 396.52 301.68"/><polygon class="cls-8" points="35.73 127.52 87.92 37.13 140.1 127.52 35.73 127.52"/><polygon class="cls-8" points="-16.8 286.56 35.39 196.17 87.57 286.56 -16.8 286.56"/><polygon class="cls-5" points="402.16 20.38 428.25 -24.81 454.34 20.38 402.16 20.38"/><polygon class="cls-5" points="157.14 304.79 183.24 259.6 209.32 304.79 157.14 304.79"/><polygon class="cls-5" points="131.16 169.32 183.34 78.93 235.53 169.32 131.16 169.32"/><polygon class="cls-9" points="194.66 403.8 246.84 313.42 299.02 403.8 194.66 403.8"/><polygon class="cls-8" points="335.12 358.61 361.22 313.42 387.31 358.61 335.12 358.61"/><polygon class="cls-8" points="335.12 202.56 361.22 157.36 387.31 202.56 335.12 202.56"/><polygon class="cls-8" points="414.4 468.4 466.58 378.01 518.76 468.4 414.4 468.4"/><polygon class="cls-8" points="111.18 241.37 163.37 150.98 215.55 241.37 111.18 241.37"/><polygon class="cls-8" points="6.67 320.88 32.76 275.69 58.85 320.88 6.67 320.88"/><polygon class="cls-5" points="6.67 320.88 32.76 275.69 58.85 320.88 6.67 320.88"/><polygon class="cls-7" points="104.64 337.36 124.52 302.92 144.41 337.36 104.64 337.36"/><polygon class="cls-8" points="368.01 270.71 387.9 236.26 407.79 270.71 368.01 270.71"/><polygon class="cls-9" points="287.43 154.7 307.32 120.26 327.21 154.7 287.43 154.7"/><polygon class="cls-9" points="435.53 496.84 455.42 462.39 475.3 496.84 435.53 496.84"/><polygon class="cls-8" points="204.07 354.59 223.96 320.14 243.84 354.59 204.07 354.59"/><polygon class="cls-7" points="68.1 137.48 87.99 103.03 107.88 137.48 68.1 137.48"/><polygon class="cls-7" points="348.13 432.91 368.02 398.46 387.9 432.91 348.13 432.91"/><polygon class="cls-8" points="-11.44 496.84 8.45 462.4 28.33 496.84 -11.44 496.84"/><polygon class="cls-5" points="423.07 189.15 442.96 154.7 462.85 189.15 423.07 189.15"/><polygon class="cls-7" points="191.27 288.72 211.16 254.28 231.04 288.72 191.27 288.72"/><polygon class="cls-7" points="217.13 196.56 227.08 179.33 237.02 196.56 217.13 196.56"/><polygon class="cls-6" points="164.3 432.91 184.19 398.46 204.07 432.91 164.3 432.91"/><polygon class="cls-7" points="211.16 496.84 231.04 462.4 250.93 496.84 211.16 496.84"/><polygon class="cls-9" points="288.06 253.49 307.95 219.04 327.84 253.49 288.06 253.49"/><polygon class="cls-8" points="374.18 488.23 384.12 471.01 394.06 488.23 374.18 488.23"/><polygon class="cls-7" points="31 264.47 50.89 230.03 70.78 264.47 31 264.47"/><polygon class="cls-5" points="-16.2 410.89 3.68 376.44 23.57 410.89 -16.2 410.89"/><polygon class="cls-5" points="390.82 384.32 410.71 349.88 430.6 384.32 390.82 384.32"/><polygon class="cls-8" points="444.35 367.1 454.3 349.88 464.24 367.1 444.35 367.1"/><polygon class="cls-8" points="444.35 307.63 454.3 290.41 464.24 307.63 444.35 307.63"/><polygon class="cls-8" points="400.77 333.46 410.71 316.24 420.65 333.46 400.77 333.46"/><polygon class="cls-5" points="398.6 93.57 418.49 59.13 438.37 93.57 398.6 93.57"/><polygon class="cls-5" points="350.97 189.15 370.86 154.7 390.74 189.15 350.97 189.15"/><polygon class="cls-5" points="222.23 92.03 242.12 57.58 262.01 92.03 222.23 92.03"/><polygon class="cls-8" points="432.73 139.88 452.62 105.44 472.5 139.88 432.73 139.88"/><polygon class="cls-9" points="439.81 282.14 459.7 247.69 479.59 282.14 439.81 282.14"/></g><path class="cls-10" d="M237.83,0C106.48,0,0,106.48,0,237.83S106.48,475.66,237.83,475.66,475.66,369.18,475.66,237.83,369.18,0,237.83,0"/><g class="cls-11"><circle class="cls-12" cx="237.83" cy="237.83" r="237.83"/></g></g><g class="cls-13"><text class="cls-14" transform="translate(62.37 288.73)">osu!</text><text class="cls-15" transform="translate(106.09 364.57)">R<tspan class="cls-16" x="44.15" y="0">eports</tspan></text><path class="cls-1" d="M221.65,163.93c33.14,0,51.27-27.46,51.27-51.26,0-.78,0-1.56-.06-2.33a36.75,36.75,0,0,0,9-9.33,35.91,35.91,0,0,1-10.34,2.83,18.14,18.14,0,0,0,7.92-10A36.25,36.25,0,0,1,268,98.25a18,18,0,0,0-30.71,16.43,51.13,51.13,0,0,1-37.13-18.82,18,18,0,0,0,5.57,24,17.9,17.9,0,0,1-8.16-2.25v.23A18,18,0,0,0,212,135.55a18.13,18.13,0,0,1-8.13.31,18,18,0,0,0,16.83,12.51,36.13,36.13,0,0,1-22.38,7.72,38.19,38.19,0,0,1-4.3-.25,51,51,0,0,0,27.62,8.09"/></g></g></g></svg>